<svg width="305" height="38" viewBox="0 0 305 38" fill="none" xmlns="http://www.w3.org/2000/svg">
<path d="M19.448 10.312C18.808 9.384 17.944 8.712 16.856 8.296C15.8 7.848 14.68 7.624 13.496 7.624C12.792 7.624 12.104 7.704 11.432 7.864C10.792 8.024 10.2 8.28 9.656 8.632C9.144 8.984 8.728 9.448 8.408 10.024C8.088 10.568 7.928 11.224 7.928 11.992C7.928 13.144 8.328 14.024 9.128 14.632C9.928 15.24 10.92 15.768 12.104 16.216C13.288 16.664 14.584 17.096 15.992 17.512C17.4 17.928 18.696 18.504 19.88 19.24C21.064 19.976 22.056 20.952 22.856 22.168C23.656 23.384 24.056 25 24.056 27.016C24.056 28.84 23.72 30.44 23.048 31.816C22.376 33.16 21.464 34.28 20.312 35.176C19.192 36.072 17.88 36.744 16.376 37.192C14.872 37.64 13.288 37.864 11.624 37.864C9.512 37.864 7.48 37.512 5.528 36.808C3.576 36.104 1.896 34.92 0.488 33.256L5.048 28.84C5.784 29.96 6.744 30.84 7.928 31.48C9.144 32.088 10.424 32.392 11.768 32.392C12.472 32.392 13.176 32.296 13.88 32.104C14.584 31.912 15.224 31.624 15.8 31.24C16.376 30.856 16.84 30.376 17.192 29.8C17.544 29.192 17.72 28.504 17.72 27.736C17.72 26.488 17.32 25.528 16.52 24.856C15.72 24.184 14.728 23.624 13.544 23.176C12.36 22.696 11.064 22.248 9.656 21.832C8.248 21.416 6.952 20.856 5.768 20.152C4.584 19.416 3.592 18.456 2.792 17.272C1.992 16.056 1.592 14.44 1.592 12.424C1.592 10.664 1.944 9.144 2.648 7.864C3.384 6.584 4.328 5.528 5.48 4.696C6.664 3.832 8.008 3.192 9.512 2.776C11.016 2.36 12.552 2.152 14.12 2.152C15.912 2.152 17.64 2.424 19.304 2.968C21 3.512 22.52 4.408 23.864 5.656L19.448 10.312ZM39.2345 27.496C39.4265 29.224 40.0985 30.568 41.2505 31.528C42.4025 32.488 43.7945 32.968 45.4265 32.968C46.8665 32.968 48.0665 32.68 49.0265 32.104C50.0185 31.496 50.8825 30.744 51.6185 29.848L55.7465 32.968C54.4025 34.632 52.8985 35.816 51.2345 36.52C49.5705 37.224 47.8265 37.576 46.0025 37.576C44.2745 37.576 42.6425 37.288 41.1065 36.712C39.5705 36.136 38.2425 35.32 37.1225 34.264C36.0025 33.208 35.1065 31.944 34.4345 30.472C33.7945 28.968 33.4745 27.304 33.4745 25.48C33.4745 23.656 33.7945 22.008 34.4345 20.536C35.1065 19.032 36.0025 17.752 37.1225 16.696C38.2425 15.64 39.5705 14.824 41.1065 14.248C42.6425 13.672 44.2745 13.384 46.0025 13.384C47.6025 13.384 49.0585 13.672 50.3705 14.248C51.7145 14.792 52.8505 15.592 53.7785 16.648C54.7385 17.704 55.4745 19.016 55.9865 20.584C56.5305 22.12 56.8025 23.896 56.8025 25.912V27.496H39.2345ZM51.0425 23.176C51.0105 21.48 50.4825 20.152 49.4585 19.192C48.4345 18.2 47.0105 17.704 45.1865 17.704C43.4585 17.704 42.0825 18.2 41.0585 19.192C40.0665 20.184 39.4585 21.512 39.2345 23.176H51.0425ZM82.733 20.872C82.061 20.168 81.357 19.608 80.621 19.192C79.885 18.776 79.133 18.568 78.365 18.568C77.309 18.568 76.365 18.76 75.533 19.144C74.701 19.528 73.981 20.04 73.373 20.68C72.797 21.32 72.349 22.056 72.029 22.888C71.741 23.72 71.597 24.584 71.597 25.48C71.597 26.376 71.741 27.24 72.029 28.072C72.349 28.904 72.797 29.64 73.373 30.28C73.981 30.92 74.701 31.432 75.533 31.816C76.365 32.2 77.309 32.392 78.365 32.392C79.261 32.392 80.093 32.216 80.861 31.864C81.629 31.48 82.285 30.936 82.829 30.232L86.669 34.36C86.093 34.936 85.421 35.432 84.653 35.848C83.917 36.264 83.165 36.6 82.397 36.856C81.629 37.112 80.893 37.288 80.189 37.384C79.485 37.512 78.877 37.576 78.365 37.576C76.637 37.576 75.005 37.288 73.469 36.712C71.933 36.136 70.605 35.32 69.485 34.264C68.365 33.208 67.469 31.944 66.797 30.472C66.157 28.968 65.837 27.304 65.837 25.48C65.837 23.656 66.157 22.008 66.797 20.536C67.469 19.032 68.365 17.752 69.485 16.696C70.605 15.64 71.933 14.824 73.469 14.248C75.005 13.672 76.637 13.384 78.365 13.384C79.837 13.384 81.309 13.672 82.781 14.248C84.285 14.792 85.597 15.672 86.717 16.888L82.733 20.872ZM93.7933 25.48C93.7933 23.656 94.1133 22.008 94.7533 20.536C95.4253 19.032 96.3213 17.752 97.4413 16.696C98.5613 15.64 99.8893 14.824 101.425 14.248C102.961 13.672 104.593 13.384 106.321 13.384C108.049 13.384 109.681 13.672 111.217 14.248C112.753 14.824 114.081 15.64 115.201 16.696C116.321 17.752 117.201 19.032 117.841 20.536C118.513 22.008 118.849 23.656 118.849 25.48C118.849 27.304 118.513 28.968 117.841 30.472C117.201 31.944 116.321 33.208 115.201 34.264C114.081 35.32 112.753 36.136 111.217 36.712C109.681 37.288 108.049 37.576 106.321 37.576C104.593 37.576 102.961 37.288 101.425 36.712C99.8893 36.136 98.5613 35.32 97.4413 34.264C96.3213 33.208 95.4253 31.944 94.7533 30.472C94.1133 28.968 93.7933 27.304 93.7933 25.48ZM99.5533 25.48C99.5533 26.376 99.6973 27.24 99.9853 28.072C100.305 28.904 100.753 29.64 101.329 30.28C101.937 30.92 102.657 31.432 103.489 31.816C104.321 32.2 105.265 32.392 106.321 32.392C107.377 32.392 108.321 32.2 109.153 31.816C109.985 31.432 110.689 30.92 111.265 30.28C111.873 29.64 112.321 28.904 112.609 28.072C112.929 27.24 113.089 26.376 113.089 25.48C113.089 24.584 112.929 23.72 112.609 22.888C112.321 22.056 111.873 21.32 111.265 20.68C110.689 20.04 109.985 19.528 109.153 19.144C108.321 18.76 107.377 18.568 106.321 18.568C105.265 18.568 104.321 18.76 103.489 19.144C102.657 19.528 101.937 20.04 101.329 20.68C100.753 21.32 100.305 22.056 99.9853 22.888C99.6973 23.72 99.5533 24.584 99.5533 25.48ZM129.042 13.96H134.514V17.656H134.61C135.154 16.504 135.986 15.512 137.106 14.68C138.226 13.816 139.746 13.384 141.666 13.384C143.202 13.384 144.498 13.64 145.554 14.152C146.642 14.664 147.522 15.336 148.194 16.168C148.866 17 149.346 17.96 149.634 19.048C149.922 20.136 150.066 21.272 150.066 22.456V37H144.306V25.336C144.306 24.696 144.274 23.992 144.21 23.224C144.146 22.424 143.97 21.688 143.682 21.016C143.426 20.312 143.01 19.736 142.434 19.288C141.858 18.808 141.074 18.568 140.082 18.568C139.122 18.568 138.306 18.728 137.634 19.048C136.994 19.368 136.45 19.8 136.002 20.344C135.586 20.888 135.282 21.512 135.09 22.216C134.898 22.92 134.802 23.656 134.802 24.424V37H129.042V13.96ZM179.645 33.544H179.549C178.717 34.952 177.597 35.976 176.189 36.616C174.781 37.256 173.261 37.576 171.629 37.576C169.837 37.576 168.237 37.272 166.829 36.664C165.453 36.024 164.269 35.16 163.277 34.072C162.285 32.984 161.533 31.704 161.021 30.232C160.509 28.76 160.253 27.176 160.253 25.48C160.253 23.784 160.525 22.2 161.069 20.728C161.613 19.256 162.365 17.976 163.325 16.888C164.317 15.8 165.501 14.952 166.877 14.344C168.253 13.704 169.757 13.384 171.389 13.384C172.477 13.384 173.437 13.496 174.269 13.72C175.101 13.944 175.837 14.232 176.477 14.584C177.117 14.936 177.661 15.32 178.109 15.736C178.557 16.12 178.925 16.504 179.213 16.888H179.357V0.711998H185.117V37H179.645V33.544ZM166.013 25.48C166.013 26.376 166.157 27.24 166.445 28.072C166.765 28.904 167.213 29.64 167.789 30.28C168.397 30.92 169.117 31.432 169.949 31.816C170.781 32.2 171.725 32.392 172.781 32.392C173.837 32.392 174.781 32.2 175.613 31.816C176.445 31.432 177.149 30.92 177.725 30.28C178.333 29.64 178.781 28.904 179.069 28.072C179.389 27.24 179.549 26.376 179.549 25.48C179.549 24.584 179.389 23.72 179.069 22.888C178.781 22.056 178.333 21.32 177.725 20.68C177.149 20.04 176.445 19.528 175.613 19.144C174.781 18.76 173.837 18.568 172.781 18.568C171.725 18.568 170.781 18.76 169.949 19.144C169.117 19.528 168.397 20.04 167.789 20.68C167.213 21.32 166.765 22.056 166.445 22.888C166.157 23.72 166.013 24.584 166.013 25.48ZM203.927 8.488H193.511V3.016H220.391V8.488H209.975V37H203.927V8.488ZM228.066 27.496C228.258 29.224 228.93 30.568 230.082 31.528C231.234 32.488 232.626 32.968 234.258 32.968C235.698 32.968 236.898 32.68 237.858 32.104C238.85 31.496 239.714 30.744 240.45 29.848L244.578 32.968C243.234 34.632 241.73 35.816 240.066 36.52C238.402 37.224 236.658 37.576 234.834 37.576C233.106 37.576 231.474 37.288 229.938 36.712C228.402 36.136 227.074 35.32 225.954 34.264C224.834 33.208 223.938 31.944 223.266 30.472C222.626 28.968 222.306 27.304 222.306 25.48C222.306 23.656 222.626 22.008 223.266 20.536C223.938 19.032 224.834 17.752 225.954 16.696C227.074 15.64 228.402 14.824 229.938 14.248C231.474 13.672 233.106 13.384 234.834 13.384C236.434 13.384 237.89 13.672 239.202 14.248C240.546 14.792 241.682 15.592 242.61 16.648C243.57 17.704 244.306 19.016 244.818 20.584C245.362 22.12 245.634 23.896 245.634 25.912V27.496H228.066ZM239.874 23.176C239.842 21.48 239.314 20.152 238.29 19.192C237.266 18.2 235.842 17.704 234.018 17.704C232.29 17.704 230.914 18.2 229.89 19.192C228.898 20.184 228.29 21.512 228.066 23.176H239.874ZM271.564 20.872C270.892 20.168 270.188 19.608 269.452 19.192C268.716 18.776 267.964 18.568 267.196 18.568C266.14 18.568 265.196 18.76 264.364 19.144C263.532 19.528 262.812 20.04 262.204 20.68C261.628 21.32 261.18 22.056 260.86 22.888C260.572 23.72 260.428 24.584 260.428 25.48C260.428 26.376 260.572 27.24 260.86 28.072C261.18 28.904 261.628 29.64 262.204 30.28C262.812 30.92 263.532 31.432 264.364 31.816C265.196 32.2 266.14 32.392 267.196 32.392C268.092 32.392 268.924 32.216 269.692 31.864C270.46 31.48 271.116 30.936 271.66 30.232L275.5 34.36C274.924 34.936 274.252 35.432 273.484 35.848C272.748 36.264 271.996 36.6 271.228 36.856C270.46 37.112 269.724 37.288 269.02 37.384C268.316 37.512 267.708 37.576 267.196 37.576C265.468 37.576 263.836 37.288 262.3 36.712C260.764 36.136 259.436 35.32 258.316 34.264C257.196 33.208 256.3 31.944 255.628 30.472C254.988 28.968 254.668 27.304 254.668 25.48C254.668 23.656 254.988 22.008 255.628 20.536C256.3 19.032 257.196 17.752 258.316 16.696C259.436 15.64 260.764 14.824 262.3 14.248C263.836 13.672 265.468 13.384 267.196 13.384C268.668 13.384 270.14 13.672 271.612 14.248C273.116 14.792 274.428 15.672 275.548 16.888L271.564 20.872ZM289.537 17.176H289.633C290.081 16.216 290.865 15.352 291.985 14.584C293.137 13.784 294.609 13.384 296.401 13.384C297.937 13.384 299.233 13.64 300.289 14.152C301.377 14.664 302.257 15.336 302.929 16.168C303.601 17 304.081 17.96 304.369 19.048C304.657 20.136 304.801 21.272 304.801 22.456V37H299.041V25.336C299.041 24.696 299.009 23.992 298.945 23.224C298.881 22.424 298.705 21.688 298.417 21.016C298.161 20.312 297.745 19.736 297.169 19.288C296.593 18.808 295.809 18.568 294.817 18.568C293.857 18.568 293.041 18.728 292.369 19.048C291.729 19.368 291.185 19.8 290.737 20.344C290.321 20.888 290.017 21.512 289.825 22.216C289.633 22.92 289.537 23.656 289.537 24.424V37H283.777V0.711998H289.537V17.176Z" fill="black"/>
</svg>
